<mxfile host="Electron" agent="Mozilla/5.0 (Macintosh; Intel Mac OS X 10_15_7) AppleWebKit/537.36 (KHTML, like Gecko) draw.io/24.7.17 Chrome/128.0.6613.36 Electron/32.0.1 Safari/537.36" version="24.7.17">
  <diagram name="Pagina-1" id="5kiZ2BBJPLTYXaYy1iPf">
    <mxGraphModel dx="2295" dy="2287" grid="1" gridSize="10" guides="1" tooltips="1" connect="1" arrows="1" fold="1" page="1" pageScale="1" pageWidth="827" pageHeight="1169" math="0" shadow="0">
      <root>
        <mxCell id="0" />
        <mxCell id="1" parent="0" />
        <mxCell id="E-cx0C7A_jiqrbiKRyt1-1" value="Login" style="rounded=0;whiteSpace=wrap;html=1;" parent="1" vertex="1">
          <mxGeometry x="410" y="330" width="120" height="60" as="geometry" />
        </mxCell>
        <mxCell id="E-cx0C7A_jiqrbiKRyt1-3" value="" style="endArrow=classic;html=1;rounded=0;exitX=0.5;exitY=0;exitDx=0;exitDy=0;entryX=0.5;entryY=1;entryDx=0;entryDy=0;" parent="1" source="E-cx0C7A_jiqrbiKRyt1-1" target="E-cx0C7A_jiqrbiKRyt1-5" edge="1">
          <mxGeometry width="50" height="50" relative="1" as="geometry">
            <mxPoint x="400" y="280" as="sourcePoint" />
            <mxPoint x="414" y="230" as="targetPoint" />
          </mxGeometry>
        </mxCell>
        <mxCell id="E-cx0C7A_jiqrbiKRyt1-4" value="Login come Amministratore" style="edgeLabel;html=1;align=center;verticalAlign=middle;resizable=0;points=[];" parent="E-cx0C7A_jiqrbiKRyt1-3" vertex="1" connectable="0">
          <mxGeometry x="-0.16" y="2" relative="1" as="geometry">
            <mxPoint as="offset" />
          </mxGeometry>
        </mxCell>
        <mxCell id="E-cx0C7A_jiqrbiKRyt1-5" value="AdminHomepage" style="rounded=0;whiteSpace=wrap;html=1;" parent="1" vertex="1">
          <mxGeometry x="408" y="-35" width="120" height="60" as="geometry" />
        </mxCell>
        <mxCell id="E-cx0C7A_jiqrbiKRyt1-6" value="AdminCategorie&lt;div&gt;(Navbar))&lt;/div&gt;" style="rounded=0;whiteSpace=wrap;html=1;" parent="1" vertex="1">
          <mxGeometry x="228" y="-35" width="120" height="60" as="geometry" />
        </mxCell>
        <mxCell id="E-cx0C7A_jiqrbiKRyt1-9" value="AdminSottocategorie" style="rounded=0;whiteSpace=wrap;html=1;" parent="1" vertex="1">
          <mxGeometry x="228" y="-141" width="120" height="60" as="geometry" />
        </mxCell>
        <mxCell id="E-cx0C7A_jiqrbiKRyt1-11" value="AdminCategoria" style="rounded=0;whiteSpace=wrap;html=1;" parent="1" vertex="1">
          <mxGeometry x="48" y="-36" width="120" height="60" as="geometry" />
        </mxCell>
        <mxCell id="E-cx0C7A_jiqrbiKRyt1-14" value="" style="endArrow=classic;html=1;rounded=0;entryX=0.5;entryY=1;entryDx=0;entryDy=0;exitX=0.5;exitY=0;exitDx=0;exitDy=0;" parent="1" source="E-cx0C7A_jiqrbiKRyt1-6" target="E-cx0C7A_jiqrbiKRyt1-9" edge="1">
          <mxGeometry width="50" height="50" relative="1" as="geometry">
            <mxPoint x="478" y="29" as="sourcePoint" />
            <mxPoint x="528" y="-21" as="targetPoint" />
          </mxGeometry>
        </mxCell>
        <mxCell id="E-cx0C7A_jiqrbiKRyt1-18" value="AdminMicrocategorie" style="rounded=0;whiteSpace=wrap;html=1;" parent="1" vertex="1">
          <mxGeometry x="228" y="-241" width="120" height="60" as="geometry" />
        </mxCell>
        <mxCell id="E-cx0C7A_jiqrbiKRyt1-19" value="" style="endArrow=classic;html=1;rounded=0;entryX=0.5;entryY=1;entryDx=0;entryDy=0;exitX=0.5;exitY=0;exitDx=0;exitDy=0;" parent="1" source="E-cx0C7A_jiqrbiKRyt1-9" target="E-cx0C7A_jiqrbiKRyt1-18" edge="1">
          <mxGeometry width="50" height="50" relative="1" as="geometry">
            <mxPoint x="328" y="-26" as="sourcePoint" />
            <mxPoint x="328" y="-91" as="targetPoint" />
          </mxGeometry>
        </mxCell>
        <mxCell id="E-cx0C7A_jiqrbiKRyt1-21" value="AdminSottocategoria" style="rounded=0;whiteSpace=wrap;html=1;" parent="1" vertex="1">
          <mxGeometry x="48" y="-141" width="120" height="60" as="geometry" />
        </mxCell>
        <mxCell id="E-cx0C7A_jiqrbiKRyt1-22" value="" style="endArrow=classic;html=1;rounded=0;entryX=1;entryY=0.5;entryDx=0;entryDy=0;exitX=0;exitY=0.5;exitDx=0;exitDy=0;" parent="1" source="E-cx0C7A_jiqrbiKRyt1-6" target="E-cx0C7A_jiqrbiKRyt1-11" edge="1">
          <mxGeometry width="50" height="50" relative="1" as="geometry">
            <mxPoint x="478" y="29" as="sourcePoint" />
            <mxPoint x="528" y="-21" as="targetPoint" />
          </mxGeometry>
        </mxCell>
        <mxCell id="E-cx0C7A_jiqrbiKRyt1-26" value="AdminMicrocategoria" style="rounded=0;whiteSpace=wrap;html=1;" parent="1" vertex="1">
          <mxGeometry x="48" y="-241" width="120" height="60" as="geometry" />
        </mxCell>
        <mxCell id="E-cx0C7A_jiqrbiKRyt1-29" value="AdminCaratteristiche" style="rounded=0;whiteSpace=wrap;html=1;" parent="1" vertex="1">
          <mxGeometry x="228" y="-341" width="120" height="60" as="geometry" />
        </mxCell>
        <mxCell id="E-cx0C7A_jiqrbiKRyt1-30" value="" style="endArrow=classic;html=1;rounded=0;entryX=0.5;entryY=1;entryDx=0;entryDy=0;exitX=0.5;exitY=0;exitDx=0;exitDy=0;" parent="1" source="E-cx0C7A_jiqrbiKRyt1-18" target="E-cx0C7A_jiqrbiKRyt1-29" edge="1">
          <mxGeometry width="50" height="50" relative="1" as="geometry">
            <mxPoint x="318" y="-241" as="sourcePoint" />
            <mxPoint x="328" y="-191" as="targetPoint" />
          </mxGeometry>
        </mxCell>
        <mxCell id="E-cx0C7A_jiqrbiKRyt1-32" value="AdminCaratteristica" style="rounded=0;whiteSpace=wrap;html=1;" parent="1" vertex="1">
          <mxGeometry x="48" y="-341" width="120" height="60" as="geometry" />
        </mxCell>
        <mxCell id="E-cx0C7A_jiqrbiKRyt1-39" value="" style="endArrow=classic;html=1;rounded=0;exitX=1;exitY=0.5;exitDx=0;exitDy=0;entryX=1;entryY=0.25;entryDx=0;entryDy=0;" parent="1" source="E-cx0C7A_jiqrbiKRyt1-18" target="E-cx0C7A_jiqrbiKRyt1-6" edge="1">
          <mxGeometry width="50" height="50" relative="1" as="geometry">
            <mxPoint x="298" y="-101" as="sourcePoint" />
            <mxPoint x="368" y="-4" as="targetPoint" />
            <Array as="points">
              <mxPoint x="368" y="-211" />
              <mxPoint x="368" y="-20" />
            </Array>
          </mxGeometry>
        </mxCell>
        <mxCell id="E-cx0C7A_jiqrbiKRyt1-41" value="" style="endArrow=none;html=1;rounded=0;exitX=1;exitY=0.5;exitDx=0;exitDy=0;" parent="1" source="E-cx0C7A_jiqrbiKRyt1-29" edge="1">
          <mxGeometry width="50" height="50" relative="1" as="geometry">
            <mxPoint x="298" y="-101" as="sourcePoint" />
            <mxPoint x="368" y="-211" as="targetPoint" />
            <Array as="points">
              <mxPoint x="368" y="-311" />
            </Array>
          </mxGeometry>
        </mxCell>
        <mxCell id="E-cx0C7A_jiqrbiKRyt1-44" value="" style="endArrow=none;html=1;rounded=0;exitX=0;exitY=0.5;exitDx=0;exitDy=0;" parent="1" source="E-cx0C7A_jiqrbiKRyt1-21" edge="1">
          <mxGeometry width="50" height="50" relative="1" as="geometry">
            <mxPoint x="278" y="-51" as="sourcePoint" />
            <mxPoint x="8" y="-111" as="targetPoint" />
          </mxGeometry>
        </mxCell>
        <mxCell id="E-cx0C7A_jiqrbiKRyt1-45" value="" style="endArrow=none;html=1;rounded=0;exitX=0;exitY=0.5;exitDx=0;exitDy=0;" parent="1" source="E-cx0C7A_jiqrbiKRyt1-26" edge="1">
          <mxGeometry width="50" height="50" relative="1" as="geometry">
            <mxPoint x="58" y="-101" as="sourcePoint" />
            <mxPoint x="8" y="-211" as="targetPoint" />
          </mxGeometry>
        </mxCell>
        <mxCell id="E-cx0C7A_jiqrbiKRyt1-47" value="" style="endArrow=none;html=1;rounded=0;exitX=1;exitY=0.5;exitDx=0;exitDy=0;" parent="1" source="E-cx0C7A_jiqrbiKRyt1-9" edge="1">
          <mxGeometry width="50" height="50" relative="1" as="geometry">
            <mxPoint x="288" y="49" as="sourcePoint" />
            <mxPoint x="368" y="-111" as="targetPoint" />
          </mxGeometry>
        </mxCell>
        <mxCell id="E-cx0C7A_jiqrbiKRyt1-48" value="" style="endArrow=none;html=1;rounded=0;exitX=0;exitY=0.5;exitDx=0;exitDy=0;" parent="1" source="E-cx0C7A_jiqrbiKRyt1-11" edge="1">
          <mxGeometry width="50" height="50" relative="1" as="geometry">
            <mxPoint x="48" y="-1" as="sourcePoint" />
            <mxPoint x="8" y="-6" as="targetPoint" />
          </mxGeometry>
        </mxCell>
        <mxCell id="E-cx0C7A_jiqrbiKRyt1-52" value="" style="endArrow=classic;startArrow=classic;html=1;rounded=0;exitX=1;exitY=0.5;exitDx=0;exitDy=0;entryX=0;entryY=0.5;entryDx=0;entryDy=0;" parent="1" source="E-cx0C7A_jiqrbiKRyt1-21" target="E-cx0C7A_jiqrbiKRyt1-9" edge="1">
          <mxGeometry width="50" height="50" relative="1" as="geometry">
            <mxPoint x="288" y="-31" as="sourcePoint" />
            <mxPoint x="338" y="-81" as="targetPoint" />
          </mxGeometry>
        </mxCell>
        <mxCell id="E-cx0C7A_jiqrbiKRyt1-53" value="" style="endArrow=classic;startArrow=classic;html=1;rounded=0;exitX=1;exitY=0.5;exitDx=0;exitDy=0;entryX=0;entryY=0.5;entryDx=0;entryDy=0;" parent="1" source="E-cx0C7A_jiqrbiKRyt1-26" target="E-cx0C7A_jiqrbiKRyt1-18" edge="1">
          <mxGeometry width="50" height="50" relative="1" as="geometry">
            <mxPoint x="178" y="-171" as="sourcePoint" />
            <mxPoint x="238" y="-171" as="targetPoint" />
          </mxGeometry>
        </mxCell>
        <mxCell id="E-cx0C7A_jiqrbiKRyt1-54" value="" style="endArrow=classic;startArrow=classic;html=1;rounded=0;exitX=1;exitY=0.5;exitDx=0;exitDy=0;entryX=0;entryY=0.5;entryDx=0;entryDy=0;" parent="1" source="E-cx0C7A_jiqrbiKRyt1-32" target="E-cx0C7A_jiqrbiKRyt1-29" edge="1">
          <mxGeometry width="50" height="50" relative="1" as="geometry">
            <mxPoint x="168" y="-261" as="sourcePoint" />
            <mxPoint x="228" y="-261" as="targetPoint" />
          </mxGeometry>
        </mxCell>
        <mxCell id="E-cx0C7A_jiqrbiKRyt1-55" value="AdminUtente&lt;div&gt;(Navbar)&lt;/div&gt;" style="rounded=0;whiteSpace=wrap;html=1;" parent="1" vertex="1">
          <mxGeometry x="588" y="-35" width="120" height="60" as="geometry" />
        </mxCell>
        <mxCell id="E-cx0C7A_jiqrbiKRyt1-58" value="" style="endArrow=classic;html=1;rounded=0;exitX=1;exitY=0.5;exitDx=0;exitDy=0;entryX=0;entryY=0.5;entryDx=0;entryDy=0;" parent="1" source="E-cx0C7A_jiqrbiKRyt1-1" target="E-cx0C7A_jiqrbiKRyt1-61" edge="1">
          <mxGeometry width="50" height="50" relative="1" as="geometry">
            <mxPoint x="490" y="230" as="sourcePoint" />
            <mxPoint x="650" y="360" as="targetPoint" />
          </mxGeometry>
        </mxCell>
        <mxCell id="E-cx0C7A_jiqrbiKRyt1-60" value="Login come Tecnico" style="edgeLabel;html=1;align=center;verticalAlign=middle;resizable=0;points=[];" parent="E-cx0C7A_jiqrbiKRyt1-58" vertex="1" connectable="0">
          <mxGeometry x="-0.087" relative="1" as="geometry">
            <mxPoint as="offset" />
          </mxGeometry>
        </mxCell>
        <mxCell id="E-cx0C7A_jiqrbiKRyt1-61" value="TecnicoHomepage" style="rounded=0;whiteSpace=wrap;html=1;" parent="1" vertex="1">
          <mxGeometry x="818.88" y="330" width="120" height="60" as="geometry" />
        </mxCell>
        <mxCell id="E-cx0C7A_jiqrbiKRyt1-62" value="TecnicoRichieste&lt;div&gt;(Navbar)&lt;/div&gt;" style="rounded=0;whiteSpace=wrap;html=1;" parent="1" vertex="1">
          <mxGeometry x="936.88" y="220" width="120" height="60" as="geometry" />
        </mxCell>
        <mxCell id="E-cx0C7A_jiqrbiKRyt1-63" value="TecnicoDetailRichiesta" style="rounded=0;whiteSpace=wrap;html=1;" parent="1" vertex="1">
          <mxGeometry x="936.88" y="110" width="120" height="60" as="geometry" />
        </mxCell>
        <mxCell id="E-cx0C7A_jiqrbiKRyt1-70" value="TecnicoProposte&lt;div&gt;(Navbar)&lt;br&gt;&lt;/div&gt;" style="rounded=0;whiteSpace=wrap;html=1;" parent="1" vertex="1">
          <mxGeometry x="1006.88" y="330" width="120" height="60" as="geometry" />
        </mxCell>
        <mxCell id="E-cx0C7A_jiqrbiKRyt1-71" value="" style="endArrow=classic;startArrow=classic;html=1;rounded=0;exitX=1;exitY=0.5;exitDx=0;exitDy=0;entryX=0;entryY=0.5;entryDx=0;entryDy=0;" parent="1" source="E-cx0C7A_jiqrbiKRyt1-61" target="E-cx0C7A_jiqrbiKRyt1-70" edge="1">
          <mxGeometry width="50" height="50" relative="1" as="geometry">
            <mxPoint x="996.88" y="400" as="sourcePoint" />
            <mxPoint x="1046.88" y="350" as="targetPoint" />
          </mxGeometry>
        </mxCell>
        <mxCell id="E-cx0C7A_jiqrbiKRyt1-72" value="TecnicoDetailProposta" style="rounded=0;whiteSpace=wrap;html=1;" parent="1" vertex="1">
          <mxGeometry x="1166.88" y="330" width="120" height="60" as="geometry" />
        </mxCell>
        <mxCell id="E-cx0C7A_jiqrbiKRyt1-73" value="" style="endArrow=classic;startArrow=classic;html=1;rounded=0;exitX=0;exitY=0.5;exitDx=0;exitDy=0;entryX=1;entryY=0.5;entryDx=0;entryDy=0;" parent="1" source="E-cx0C7A_jiqrbiKRyt1-72" target="E-cx0C7A_jiqrbiKRyt1-70" edge="1">
          <mxGeometry width="50" height="50" relative="1" as="geometry">
            <mxPoint x="996.88" y="400" as="sourcePoint" />
            <mxPoint x="1046.88" y="350" as="targetPoint" />
          </mxGeometry>
        </mxCell>
        <mxCell id="E-cx0C7A_jiqrbiKRyt1-74" value="" style="endArrow=classic;html=1;rounded=0;exitX=0.5;exitY=0;exitDx=0;exitDy=0;entryX=0.864;entryY=0.022;entryDx=0;entryDy=0;entryPerimeter=0;" parent="1" source="E-cx0C7A_jiqrbiKRyt1-72" target="E-cx0C7A_jiqrbiKRyt1-61" edge="1">
          <mxGeometry width="50" height="50" relative="1" as="geometry">
            <mxPoint x="996.88" y="400" as="sourcePoint" />
            <mxPoint x="1046.88" y="350" as="targetPoint" />
            <Array as="points">
              <mxPoint x="1226.88" y="310" />
              <mxPoint x="922.88" y="310" />
            </Array>
          </mxGeometry>
        </mxCell>
        <mxCell id="E-cx0C7A_jiqrbiKRyt1-75" value="TecnicoOrdini&lt;div&gt;(Navbar)&lt;br&gt;&lt;/div&gt;" style="rounded=0;whiteSpace=wrap;html=1;" parent="1" vertex="1">
          <mxGeometry x="818.88" y="430" width="120" height="60" as="geometry" />
        </mxCell>
        <mxCell id="E-cx0C7A_jiqrbiKRyt1-76" value="" style="endArrow=classic;startArrow=classic;html=1;rounded=0;exitX=0.5;exitY=0;exitDx=0;exitDy=0;entryX=0.5;entryY=1;entryDx=0;entryDy=0;" parent="1" source="E-cx0C7A_jiqrbiKRyt1-75" target="E-cx0C7A_jiqrbiKRyt1-61" edge="1">
          <mxGeometry width="50" height="50" relative="1" as="geometry">
            <mxPoint x="996.88" y="400" as="sourcePoint" />
            <mxPoint x="1046.88" y="350" as="targetPoint" />
          </mxGeometry>
        </mxCell>
        <mxCell id="E-cx0C7A_jiqrbiKRyt1-77" value="TecnicoDetailOrdini" style="rounded=0;whiteSpace=wrap;html=1;" parent="1" vertex="1">
          <mxGeometry x="818.88" y="525" width="120" height="60" as="geometry" />
        </mxCell>
        <mxCell id="E-cx0C7A_jiqrbiKRyt1-78" value="" style="endArrow=classic;startArrow=classic;html=1;rounded=0;exitX=0.5;exitY=0;exitDx=0;exitDy=0;entryX=0.5;entryY=1;entryDx=0;entryDy=0;" parent="1" source="E-cx0C7A_jiqrbiKRyt1-77" target="E-cx0C7A_jiqrbiKRyt1-75" edge="1">
          <mxGeometry width="50" height="50" relative="1" as="geometry">
            <mxPoint x="906.88" y="550" as="sourcePoint" />
            <mxPoint x="906.88" y="510" as="targetPoint" />
          </mxGeometry>
        </mxCell>
        <mxCell id="E-cx0C7A_jiqrbiKRyt1-79" value="" style="endArrow=classic;html=1;rounded=0;exitX=1;exitY=0.5;exitDx=0;exitDy=0;entryX=1;entryY=0.75;entryDx=0;entryDy=0;" parent="1" source="E-cx0C7A_jiqrbiKRyt1-77" target="E-cx0C7A_jiqrbiKRyt1-61" edge="1">
          <mxGeometry width="50" height="50" relative="1" as="geometry">
            <mxPoint x="966.88" y="420" as="sourcePoint" />
            <mxPoint x="1016.88" y="370" as="targetPoint" />
            <Array as="points">
              <mxPoint x="976.88" y="555" />
              <mxPoint x="976.88" y="375" />
            </Array>
          </mxGeometry>
        </mxCell>
        <mxCell id="E-cx0C7A_jiqrbiKRyt1-81" value="OrdinanteHomepage" style="rounded=0;whiteSpace=wrap;html=1;" parent="1" vertex="1">
          <mxGeometry x="80" y="330" width="120" height="60" as="geometry" />
        </mxCell>
        <mxCell id="E-cx0C7A_jiqrbiKRyt1-82" value="" style="endArrow=classic;html=1;rounded=0;exitX=0;exitY=0.5;exitDx=0;exitDy=0;entryX=1;entryY=0.5;entryDx=0;entryDy=0;" parent="1" source="E-cx0C7A_jiqrbiKRyt1-1" target="E-cx0C7A_jiqrbiKRyt1-81" edge="1">
          <mxGeometry width="50" height="50" relative="1" as="geometry">
            <mxPoint x="490" y="540" as="sourcePoint" />
            <mxPoint x="410" y="590" as="targetPoint" />
          </mxGeometry>
        </mxCell>
        <mxCell id="E-cx0C7A_jiqrbiKRyt1-83" value="Login come Ordinante" style="edgeLabel;html=1;align=center;verticalAlign=middle;resizable=0;points=[];" parent="E-cx0C7A_jiqrbiKRyt1-82" vertex="1" connectable="0">
          <mxGeometry x="-0.0904" y="2" relative="1" as="geometry">
            <mxPoint as="offset" />
          </mxGeometry>
        </mxCell>
        <mxCell id="E-cx0C7A_jiqrbiKRyt1-84" value="OrdinanteStorico&lt;div&gt;(Navbar)&lt;/div&gt;" style="rounded=0;whiteSpace=wrap;html=1;" parent="1" vertex="1">
          <mxGeometry x="-187" y="315" width="120" height="60" as="geometry" />
        </mxCell>
        <mxCell id="E-cx0C7A_jiqrbiKRyt1-86" value="OrdinanteRichiestaDetail" style="rounded=0;whiteSpace=wrap;html=1;" parent="1" vertex="1">
          <mxGeometry x="-390" y="310" width="140" height="70" as="geometry" />
        </mxCell>
        <mxCell id="E-cx0C7A_jiqrbiKRyt1-89" value="OrdinanteProposte&lt;div&gt;(Navbar)&lt;/div&gt;" style="rounded=0;whiteSpace=wrap;html=1;" parent="1" vertex="1">
          <mxGeometry x="110" y="430" width="120" height="60" as="geometry" />
        </mxCell>
        <mxCell id="E-cx0C7A_jiqrbiKRyt1-91" value="OrdinantePropostaDetail" style="rounded=0;whiteSpace=wrap;html=1;" parent="1" vertex="1">
          <mxGeometry x="100" y="550" width="140" height="70" as="geometry" />
        </mxCell>
        <mxCell id="E-cx0C7A_jiqrbiKRyt1-95" value="PropostaRifiuto" style="rounded=0;whiteSpace=wrap;html=1;" parent="1" vertex="1">
          <mxGeometry x="100" y="675" width="140" height="70" as="geometry" />
        </mxCell>
        <mxCell id="E-cx0C7A_jiqrbiKRyt1-96" value="" style="endArrow=classic;startArrow=classic;html=1;rounded=0;entryX=0.5;entryY=0;entryDx=0;entryDy=0;exitX=0.5;exitY=1;exitDx=0;exitDy=0;" parent="1" source="E-cx0C7A_jiqrbiKRyt1-91" target="E-cx0C7A_jiqrbiKRyt1-95" edge="1">
          <mxGeometry width="50" height="50" relative="1" as="geometry">
            <mxPoint x="144" y="655" as="sourcePoint" />
            <mxPoint x="144" y="705" as="targetPoint" />
          </mxGeometry>
        </mxCell>
        <mxCell id="2Ug8GJSpFCmLmsJJbztT-7" value="" style="endArrow=classic;html=1;rounded=0;entryX=0.5;entryY=0;entryDx=0;entryDy=0;" edge="1" parent="1" target="E-cx0C7A_jiqrbiKRyt1-5">
          <mxGeometry width="50" height="50" relative="1" as="geometry">
            <mxPoint x="468" y="-74" as="sourcePoint" />
            <mxPoint x="498" y="-34" as="targetPoint" />
          </mxGeometry>
        </mxCell>
        <mxCell id="2Ug8GJSpFCmLmsJJbztT-11" value="Impostazioni&lt;div&gt;(Navbar)&lt;/div&gt;" style="rounded=0;whiteSpace=wrap;html=1;" vertex="1" parent="1">
          <mxGeometry x="408" y="-194" width="120" height="60" as="geometry" />
        </mxCell>
        <mxCell id="2Ug8GJSpFCmLmsJJbztT-12" value="" style="endArrow=classic;html=1;rounded=0;entryX=0.5;entryY=1;entryDx=0;entryDy=0;" edge="1" parent="1" target="2Ug8GJSpFCmLmsJJbztT-11">
          <mxGeometry width="50" height="50" relative="1" as="geometry">
            <mxPoint x="468" y="-74" as="sourcePoint" />
            <mxPoint x="368" y="-124" as="targetPoint" />
          </mxGeometry>
        </mxCell>
        <mxCell id="2Ug8GJSpFCmLmsJJbztT-13" value="Impostazioni&lt;div&gt;(Navbar)&lt;/div&gt;" style="rounded=0;whiteSpace=wrap;html=1;" vertex="1" parent="1">
          <mxGeometry x="686.88" y="430" width="120" height="60" as="geometry" />
        </mxCell>
        <mxCell id="2Ug8GJSpFCmLmsJJbztT-14" value="" style="endArrow=classic;startArrow=classic;html=1;rounded=0;exitX=0.5;exitY=0;exitDx=0;exitDy=0;entryX=0;entryY=0.75;entryDx=0;entryDy=0;" edge="1" parent="1" source="2Ug8GJSpFCmLmsJJbztT-13" target="E-cx0C7A_jiqrbiKRyt1-61">
          <mxGeometry width="50" height="50" relative="1" as="geometry">
            <mxPoint x="906.88" y="440" as="sourcePoint" />
            <mxPoint x="906.88" y="400" as="targetPoint" />
            <Array as="points">
              <mxPoint x="746.88" y="375" />
            </Array>
          </mxGeometry>
        </mxCell>
        <mxCell id="2Ug8GJSpFCmLmsJJbztT-17" value="" style="endArrow=classic;startArrow=classic;html=1;rounded=0;entryX=0.75;entryY=1;entryDx=0;entryDy=0;exitX=0.5;exitY=0;exitDx=0;exitDy=0;" edge="1" parent="1" source="E-cx0C7A_jiqrbiKRyt1-89" target="E-cx0C7A_jiqrbiKRyt1-81">
          <mxGeometry width="50" height="50" relative="1" as="geometry">
            <mxPoint x="240" y="685" as="sourcePoint" />
            <mxPoint x="290" y="635" as="targetPoint" />
          </mxGeometry>
        </mxCell>
        <mxCell id="2Ug8GJSpFCmLmsJJbztT-18" value="" style="endArrow=classic;startArrow=classic;html=1;rounded=0;entryX=0.5;entryY=1;entryDx=0;entryDy=0;exitX=0.5;exitY=0;exitDx=0;exitDy=0;" edge="1" parent="1" source="E-cx0C7A_jiqrbiKRyt1-91" target="E-cx0C7A_jiqrbiKRyt1-89">
          <mxGeometry width="50" height="50" relative="1" as="geometry">
            <mxPoint x="240" y="555" as="sourcePoint" />
            <mxPoint x="290" y="505" as="targetPoint" />
          </mxGeometry>
        </mxCell>
        <mxCell id="2Ug8GJSpFCmLmsJJbztT-22" value="" style="endArrow=classic;startArrow=classic;html=1;rounded=0;exitX=1;exitY=0.5;exitDx=0;exitDy=0;entryX=0;entryY=0.5;entryDx=0;entryDy=0;" edge="1" parent="1" source="E-cx0C7A_jiqrbiKRyt1-86" target="E-cx0C7A_jiqrbiKRyt1-84">
          <mxGeometry width="50" height="50" relative="1" as="geometry">
            <mxPoint x="-50" y="370" as="sourcePoint" />
            <mxPoint y="320" as="targetPoint" />
          </mxGeometry>
        </mxCell>
        <mxCell id="2Ug8GJSpFCmLmsJJbztT-23" value="" style="endArrow=classic;startArrow=classic;html=1;rounded=0;entryX=0;entryY=0.25;entryDx=0;entryDy=0;exitX=1;exitY=0.5;exitDx=0;exitDy=0;" edge="1" parent="1" source="E-cx0C7A_jiqrbiKRyt1-84" target="E-cx0C7A_jiqrbiKRyt1-81">
          <mxGeometry width="50" height="50" relative="1" as="geometry">
            <mxPoint x="-50" y="370" as="sourcePoint" />
            <mxPoint y="320" as="targetPoint" />
          </mxGeometry>
        </mxCell>
        <mxCell id="2Ug8GJSpFCmLmsJJbztT-27" value="" style="endArrow=classic;startArrow=classic;html=1;rounded=0;exitX=0.75;exitY=0;exitDx=0;exitDy=0;entryX=0.5;entryY=1;entryDx=0;entryDy=0;" edge="1" parent="1" source="E-cx0C7A_jiqrbiKRyt1-81" target="2Ug8GJSpFCmLmsJJbztT-29">
          <mxGeometry width="50" height="50" relative="1" as="geometry">
            <mxPoint x="290" y="400" as="sourcePoint" />
            <mxPoint x="140" y="270" as="targetPoint" />
          </mxGeometry>
        </mxCell>
        <mxCell id="2Ug8GJSpFCmLmsJJbztT-29" value="OrdinanteRichiesta" style="rounded=0;whiteSpace=wrap;html=1;" vertex="1" parent="1">
          <mxGeometry x="110" y="220" width="120" height="60" as="geometry" />
        </mxCell>
        <mxCell id="2Ug8GJSpFCmLmsJJbztT-38" value="" style="endArrow=classic;startArrow=classic;html=1;rounded=0;entryX=0.5;entryY=1;entryDx=0;entryDy=0;exitX=0.5;exitY=0;exitDx=0;exitDy=0;" edge="1" parent="1" source="E-cx0C7A_jiqrbiKRyt1-62" target="E-cx0C7A_jiqrbiKRyt1-63">
          <mxGeometry width="50" height="50" relative="1" as="geometry">
            <mxPoint x="926.88" y="240" as="sourcePoint" />
            <mxPoint x="996.88" y="170" as="targetPoint" />
          </mxGeometry>
        </mxCell>
        <mxCell id="2Ug8GJSpFCmLmsJJbztT-39" value="" style="endArrow=classic;html=1;rounded=0;exitX=0;exitY=0.5;exitDx=0;exitDy=0;entryX=0.5;entryY=0;entryDx=0;entryDy=0;" edge="1" parent="1" target="E-cx0C7A_jiqrbiKRyt1-61">
          <mxGeometry width="50" height="50" relative="1" as="geometry">
            <mxPoint x="936.88" y="140" as="sourcePoint" />
            <mxPoint x="976.88" y="190" as="targetPoint" />
            <Array as="points">
              <mxPoint x="878.88" y="140" />
            </Array>
          </mxGeometry>
        </mxCell>
        <mxCell id="2Ug8GJSpFCmLmsJJbztT-40" value="TecnicoDetailRichiesta" style="rounded=0;whiteSpace=wrap;html=1;" vertex="1" parent="1">
          <mxGeometry x="706.88" y="220" width="120" height="60" as="geometry" />
        </mxCell>
        <mxCell id="2Ug8GJSpFCmLmsJJbztT-41" value="" style="endArrow=classic;startArrow=classic;html=1;rounded=0;entryX=0;entryY=0.5;entryDx=0;entryDy=0;exitX=0.75;exitY=0;exitDx=0;exitDy=0;" edge="1" parent="1" source="E-cx0C7A_jiqrbiKRyt1-61" target="E-cx0C7A_jiqrbiKRyt1-62">
          <mxGeometry width="50" height="50" relative="1" as="geometry">
            <mxPoint x="866.88" y="290" as="sourcePoint" />
            <mxPoint x="916.88" y="240" as="targetPoint" />
            <Array as="points">
              <mxPoint x="908.88" y="250" />
            </Array>
          </mxGeometry>
        </mxCell>
        <mxCell id="2Ug8GJSpFCmLmsJJbztT-42" value="" style="endArrow=classic;startArrow=classic;html=1;rounded=0;entryX=1;entryY=0.5;entryDx=0;entryDy=0;exitX=0.25;exitY=0;exitDx=0;exitDy=0;" edge="1" parent="1" source="E-cx0C7A_jiqrbiKRyt1-61" target="2Ug8GJSpFCmLmsJJbztT-40">
          <mxGeometry width="50" height="50" relative="1" as="geometry">
            <mxPoint x="816.88" y="320" as="sourcePoint" />
            <mxPoint x="866.88" y="270" as="targetPoint" />
            <Array as="points">
              <mxPoint x="848.88" y="250" />
            </Array>
          </mxGeometry>
        </mxCell>
        <mxCell id="2Ug8GJSpFCmLmsJJbztT-43" value="TecnicoProposta" style="rounded=0;whiteSpace=wrap;html=1;" vertex="1" parent="1">
          <mxGeometry x="706.88" y="130" width="120" height="60" as="geometry" />
        </mxCell>
        <mxCell id="2Ug8GJSpFCmLmsJJbztT-44" value="" style="endArrow=classic;startArrow=classic;html=1;rounded=0;entryX=0.5;entryY=1;entryDx=0;entryDy=0;exitX=0.5;exitY=0;exitDx=0;exitDy=0;" edge="1" parent="1" source="2Ug8GJSpFCmLmsJJbztT-40" target="2Ug8GJSpFCmLmsJJbztT-43">
          <mxGeometry width="50" height="50" relative="1" as="geometry">
            <mxPoint x="806.88" y="240" as="sourcePoint" />
            <mxPoint x="856.88" y="190" as="targetPoint" />
          </mxGeometry>
        </mxCell>
        <mxCell id="2Ug8GJSpFCmLmsJJbztT-46" value="TecnicoDetailProposta" style="rounded=0;whiteSpace=wrap;html=1;" vertex="1" parent="1">
          <mxGeometry x="706.8800000000001" y="40" width="120" height="60" as="geometry" />
        </mxCell>
        <mxCell id="2Ug8GJSpFCmLmsJJbztT-48" value="" style="endArrow=classic;html=1;rounded=0;exitX=0;exitY=0.5;exitDx=0;exitDy=0;entryX=0;entryY=0.25;entryDx=0;entryDy=0;" edge="1" parent="1" source="2Ug8GJSpFCmLmsJJbztT-46" target="E-cx0C7A_jiqrbiKRyt1-61">
          <mxGeometry width="50" height="50" relative="1" as="geometry">
            <mxPoint x="740" y="240" as="sourcePoint" />
            <mxPoint x="790" y="190" as="targetPoint" />
            <Array as="points">
              <mxPoint x="680" y="70" />
              <mxPoint x="680" y="345" />
            </Array>
          </mxGeometry>
        </mxCell>
        <mxCell id="2Ug8GJSpFCmLmsJJbztT-49" value="" style="endArrow=none;html=1;rounded=0;entryX=0;entryY=0.5;entryDx=0;entryDy=0;" edge="1" parent="1" target="2Ug8GJSpFCmLmsJJbztT-43">
          <mxGeometry width="50" height="50" relative="1" as="geometry">
            <mxPoint x="680" y="160" as="sourcePoint" />
            <mxPoint x="790" y="190" as="targetPoint" />
          </mxGeometry>
        </mxCell>
        <mxCell id="2Ug8GJSpFCmLmsJJbztT-50" value="" style="endArrow=classic;html=1;rounded=0;entryX=0.5;entryY=1;entryDx=0;entryDy=0;exitX=0.5;exitY=0;exitDx=0;exitDy=0;" edge="1" parent="1" source="2Ug8GJSpFCmLmsJJbztT-43" target="2Ug8GJSpFCmLmsJJbztT-46">
          <mxGeometry width="50" height="50" relative="1" as="geometry">
            <mxPoint x="660" y="380" as="sourcePoint" />
            <mxPoint x="710" y="330" as="targetPoint" />
          </mxGeometry>
        </mxCell>
        <mxCell id="2Ug8GJSpFCmLmsJJbztT-51" value="Impostazioni&lt;div&gt;(Navbar)&lt;/div&gt;" style="rounded=0;whiteSpace=wrap;html=1;" vertex="1" parent="1">
          <mxGeometry x="270" y="430" width="120" height="60" as="geometry" />
        </mxCell>
        <mxCell id="2Ug8GJSpFCmLmsJJbztT-52" value="" style="endArrow=classic;startArrow=classic;html=1;rounded=0;exitX=0.5;exitY=0;exitDx=0;exitDy=0;entryX=1;entryY=0.75;entryDx=0;entryDy=0;" edge="1" parent="1" source="2Ug8GJSpFCmLmsJJbztT-51" target="E-cx0C7A_jiqrbiKRyt1-81">
          <mxGeometry width="50" height="50" relative="1" as="geometry">
            <mxPoint x="400" y="450" as="sourcePoint" />
            <mxPoint x="450" y="400" as="targetPoint" />
            <Array as="points">
              <mxPoint x="330" y="375" />
            </Array>
          </mxGeometry>
        </mxCell>
        <mxCell id="2Ug8GJSpFCmLmsJJbztT-53" value="OrdinanteRichiestaDetail" style="rounded=0;whiteSpace=wrap;html=1;" vertex="1" parent="1">
          <mxGeometry x="100" y="110" width="140" height="70" as="geometry" />
        </mxCell>
        <mxCell id="2Ug8GJSpFCmLmsJJbztT-54" value="" style="endArrow=classic;html=1;rounded=0;exitX=0;exitY=0.5;exitDx=0;exitDy=0;entryX=0.5;entryY=1;entryDx=0;entryDy=0;" edge="1" parent="1" source="E-cx0C7A_jiqrbiKRyt1-32" target="E-cx0C7A_jiqrbiKRyt1-6">
          <mxGeometry width="50" height="50" relative="1" as="geometry">
            <mxPoint x="108" y="-50" as="sourcePoint" />
            <mxPoint x="158" y="-100" as="targetPoint" />
            <Array as="points">
              <mxPoint x="8" y="-310" />
              <mxPoint x="8" y="50" />
              <mxPoint x="288" y="50" />
            </Array>
          </mxGeometry>
        </mxCell>
        <mxCell id="2Ug8GJSpFCmLmsJJbztT-56" value="" style="endArrow=classic;html=1;rounded=0;entryX=0.5;entryY=1;entryDx=0;entryDy=0;exitX=0.5;exitY=0;exitDx=0;exitDy=0;" edge="1" parent="1" source="2Ug8GJSpFCmLmsJJbztT-29" target="2Ug8GJSpFCmLmsJJbztT-53">
          <mxGeometry width="50" height="50" relative="1" as="geometry">
            <mxPoint x="50" y="220" as="sourcePoint" />
            <mxPoint x="100" y="170" as="targetPoint" />
          </mxGeometry>
        </mxCell>
        <mxCell id="2Ug8GJSpFCmLmsJJbztT-57" value="" style="endArrow=classic;html=1;rounded=0;exitX=1;exitY=0.5;exitDx=0;exitDy=0;entryX=1;entryY=0.25;entryDx=0;entryDy=0;" edge="1" parent="1" source="2Ug8GJSpFCmLmsJJbztT-53" target="E-cx0C7A_jiqrbiKRyt1-81">
          <mxGeometry width="50" height="50" relative="1" as="geometry">
            <mxPoint x="50" y="220" as="sourcePoint" />
            <mxPoint x="100" y="170" as="targetPoint" />
            <Array as="points">
              <mxPoint x="240" y="145" />
              <mxPoint x="270" y="145" />
              <mxPoint x="270" y="345" />
            </Array>
          </mxGeometry>
        </mxCell>
        <mxCell id="2Ug8GJSpFCmLmsJJbztT-59" value="OrdinanteOrdini&lt;div&gt;(Navbar)&lt;/div&gt;" style="rounded=0;whiteSpace=wrap;html=1;" vertex="1" parent="1">
          <mxGeometry x="-101" y="427" width="120" height="60" as="geometry" />
        </mxCell>
        <mxCell id="2Ug8GJSpFCmLmsJJbztT-60" value="" style="endArrow=classic;startArrow=classic;html=1;rounded=0;exitX=0.5;exitY=0;exitDx=0;exitDy=0;entryX=0;entryY=0.5;entryDx=0;entryDy=0;" edge="1" parent="1" source="2Ug8GJSpFCmLmsJJbztT-59" target="E-cx0C7A_jiqrbiKRyt1-81">
          <mxGeometry width="50" height="50" relative="1" as="geometry">
            <mxPoint x="110" y="430" as="sourcePoint" />
            <mxPoint x="160" y="380" as="targetPoint" />
            <Array as="points">
              <mxPoint x="-40" y="360" />
            </Array>
          </mxGeometry>
        </mxCell>
        <mxCell id="2Ug8GJSpFCmLmsJJbztT-61" value="OrdinanteOrdineDetail" style="rounded=0;whiteSpace=wrap;html=1;" vertex="1" parent="1">
          <mxGeometry x="-111" y="547" width="140" height="70" as="geometry" />
        </mxCell>
        <mxCell id="2Ug8GJSpFCmLmsJJbztT-62" value="" style="endArrow=classic;startArrow=classic;html=1;rounded=0;entryX=0.5;entryY=1;entryDx=0;entryDy=0;exitX=0.5;exitY=0;exitDx=0;exitDy=0;" edge="1" parent="1" source="2Ug8GJSpFCmLmsJJbztT-61" target="2Ug8GJSpFCmLmsJJbztT-59">
          <mxGeometry width="50" height="50" relative="1" as="geometry">
            <mxPoint x="119" y="557" as="sourcePoint" />
            <mxPoint x="119" y="497" as="targetPoint" />
          </mxGeometry>
        </mxCell>
        <mxCell id="2Ug8GJSpFCmLmsJJbztT-63" value="OrdineRifiuto" style="rounded=0;whiteSpace=wrap;html=1;" vertex="1" parent="1">
          <mxGeometry x="-111" y="670" width="140" height="70" as="geometry" />
        </mxCell>
        <mxCell id="2Ug8GJSpFCmLmsJJbztT-65" value="" style="endArrow=classic;html=1;rounded=0;entryX=1;entryY=0.5;entryDx=0;entryDy=0;exitX=0;exitY=0.5;exitDx=0;exitDy=0;" edge="1" parent="1" source="E-cx0C7A_jiqrbiKRyt1-5" target="E-cx0C7A_jiqrbiKRyt1-6">
          <mxGeometry width="50" height="50" relative="1" as="geometry">
            <mxPoint x="468" y="60" as="sourcePoint" />
            <mxPoint x="518" y="10" as="targetPoint" />
          </mxGeometry>
        </mxCell>
        <mxCell id="2Ug8GJSpFCmLmsJJbztT-66" value="" style="endArrow=classic;html=1;rounded=0;entryX=0;entryY=0.5;entryDx=0;entryDy=0;exitX=1;exitY=0.5;exitDx=0;exitDy=0;" edge="1" parent="1" source="E-cx0C7A_jiqrbiKRyt1-5" target="E-cx0C7A_jiqrbiKRyt1-55">
          <mxGeometry width="50" height="50" relative="1" as="geometry">
            <mxPoint x="468" y="60" as="sourcePoint" />
            <mxPoint x="518" y="10" as="targetPoint" />
          </mxGeometry>
        </mxCell>
        <mxCell id="2Ug8GJSpFCmLmsJJbztT-67" value="" style="endArrow=classic;html=1;rounded=0;entryX=0;entryY=0.75;entryDx=0;entryDy=0;exitX=1;exitY=0.5;exitDx=0;exitDy=0;" edge="1" parent="1" source="2Ug8GJSpFCmLmsJJbztT-63" target="E-cx0C7A_jiqrbiKRyt1-81">
          <mxGeometry width="50" height="50" relative="1" as="geometry">
            <mxPoint x="90" y="610" as="sourcePoint" />
            <mxPoint x="140" y="560" as="targetPoint" />
            <Array as="points">
              <mxPoint x="60" y="705" />
              <mxPoint x="60" y="375" />
            </Array>
          </mxGeometry>
        </mxCell>
        <mxCell id="2Ug8GJSpFCmLmsJJbztT-68" value="" style="endArrow=classic;html=1;rounded=0;entryX=0.083;entryY=1.025;entryDx=0;entryDy=0;entryPerimeter=0;exitX=0;exitY=0.5;exitDx=0;exitDy=0;" edge="1" parent="1" source="E-cx0C7A_jiqrbiKRyt1-95" target="E-cx0C7A_jiqrbiKRyt1-81">
          <mxGeometry width="50" height="50" relative="1" as="geometry">
            <mxPoint x="90" y="580" as="sourcePoint" />
            <mxPoint x="140" y="530" as="targetPoint" />
            <Array as="points">
              <mxPoint x="90" y="710" />
            </Array>
          </mxGeometry>
        </mxCell>
        <mxCell id="2Ug8GJSpFCmLmsJJbztT-70" value="" style="endArrow=classic;html=1;rounded=0;exitX=0.5;exitY=0;exitDx=0;exitDy=0;entryX=0.25;entryY=0;entryDx=0;entryDy=0;" edge="1" parent="1" source="E-cx0C7A_jiqrbiKRyt1-86" target="E-cx0C7A_jiqrbiKRyt1-81">
          <mxGeometry width="50" height="50" relative="1" as="geometry">
            <mxPoint x="210" y="280" as="sourcePoint" />
            <mxPoint x="260" y="230" as="targetPoint" />
            <Array as="points">
              <mxPoint x="-320" y="300" />
              <mxPoint x="110" y="300" />
            </Array>
          </mxGeometry>
        </mxCell>
        <mxCell id="2Ug8GJSpFCmLmsJJbztT-71" value="" style="endArrow=classic;html=1;rounded=0;exitX=0.5;exitY=1;exitDx=0;exitDy=0;entryX=0.5;entryY=0;entryDx=0;entryDy=0;" edge="1" parent="1" source="2Ug8GJSpFCmLmsJJbztT-61" target="2Ug8GJSpFCmLmsJJbztT-63">
          <mxGeometry width="50" height="50" relative="1" as="geometry">
            <mxPoint x="60" y="400" as="sourcePoint" />
            <mxPoint x="110" y="350" as="targetPoint" />
          </mxGeometry>
        </mxCell>
      </root>
    </mxGraphModel>
  </diagram>
</mxfile>
